<svg version="1.0" xmlns="http://www.w3.org/2000/svg" width="1742.667" height="676" viewBox="0 0 1307 507"><path d="M206.6 1c-10.1 1.6-17.2 3.8-24.8 7.6-16.3 8.2-29.2 21.2-36.8 36.8-6.7 13.9-8.4 22.4-7.7 38.5.6 14.7 2.2 21.5 7.7 32.7 11.9 24.4 34.7 40.9 61.5 44.5 23 3 47.2-4.7 64.3-20.6 18.5-17.2 27.2-38.7 25.9-63.5-.7-12.6-2.5-19.8-7.7-30.8C276.1 19.1 251.1 2.5 220.5.6c-4.4-.3-10.7-.1-13.9.4zm27.7 33.3c12.5 6.2 22.1 18.7 25.6 33.1 1.5 6.2 1.6 19.6.2 25.6-2.9 12.3-7 19.8-15.2 27.5-21.1 19.7-53.3 12.9-66.6-14-4.8-9.6-7.1-24.7-5.3-34.5 2.7-14.7 9.5-26.4 19.6-33.6 8.9-6.4 15.8-8.5 26.1-8.1 7 .3 9.2.8 15.6 4zM521.5 1c-27.1 4.2-49.2 20.3-61.1 44.5-6.2 12.8-7.8 19.6-7.9 34 0 14.1 2.1 24.4 7 35.2 22.3 48.6 83.5 62.2 124.7 27.8 20.1-16.8 31-44.2 27.8-70-1.5-12-3.4-18.4-8.6-28.5-8.3-16.3-19.8-27.3-36.9-35.6-13.6-6.7-31.2-9.5-45-7.4zm28.3 33.1c31.7 15.5 36.5 65.7 8.5 88.5-7.9 6.5-14.9 8.8-26.3 8.9-8.6 0-10.1-.3-16.3-3.2-8.2-3.9-17.3-12.6-21.1-20.2-3.9-7.5-6.6-19.2-6.6-27.9 0-18.3 9.1-35.5 23.5-44.1 8-4.8 13.5-6.2 23.3-5.7 6.9.3 9.5.9 15 3.7zM0 20v14h47v124h34V34h47V6H0v14zM299 6.4c0 .2 13.1 21.2 29 46.5L357 99v59h35V99.8l11.4-18.2c6.2-9.9 19.5-31 29.4-46.9L450.9 6l-20 .2-20 .3-17.7 30.7C383.5 54 375.3 68.1 375 68.3c-.3.3-8.6-13.6-18.5-30.8l-18-31.4-19.7-.1c-10.9 0-19.8.2-19.8.4zM623 20v14h47v124h34V34h47V6H623v14zm175.2-6.8c-15.8 38.4-48.8 118.3-58.9 142.5-.4 1 3.9 1.3 19.5 1.3h19.9l6.4-17 6.4-17 31 .3 31 .2 6.4 16.7 6.4 16.8H906l-.9-2.3c-.5-1.2-8.2-19.8-17.1-41.2-8.8-21.5-22.4-54.4-30.2-73.3L843.7 6h-42.5l-3 7.2zM833 69.9c5.5 14.5 10 26.5 10 26.7 0 .2-9.2.4-20.5.4s-20.5-.3-20.5-.7c0-.5 13.7-36.6 19.5-51.6.4-1 .9-1.6 1.1-1.4.2.2 4.9 12.2 10.4 26.6z" fill="#bb001e"/><path d="M1 247.5V262h1306v-29H1v14.5z" fill="#bdbcbc"/><path d="M1252.5 413c-23 3.1-37.5 20.9-37.5 46.2 0 10.3 1.5 16.9 5.8 25.1 4 7.7 9.9 13.5 17.7 17.2 7.3 3.4 12.6 4.4 23.1 4.5 12.6 0 20.7-2.6 32.7-10.4l4.7-3.1V458h-39v11h27v17l-4.5 2.9c-14.1 9-35.1 7.8-45.7-2.6-12.1-11.8-12.3-40-.4-54 6.4-7.6 21.5-11.2 32.9-7.9 7.1 2.1 13 7.1 15.3 13.2 1.8 4.7 2.6 5 8.5 3.2 2.4-.7 3.9-1.7 3.9-2.7-.1-2.1-3.4-9.5-6.1-13.3-6.3-8.8-22.9-13.9-38.4-11.8zM6 459.5V505h12v-37.8c0-20.7.4-37 .9-36.2.4.8 6.3 17.8 13.1 37.8l12.3 36.3 5.6-.3 5.6-.3 12.5-36 12.5-36 .3 36.2.2 36.3h12v-91.1l-8.2.3-8.2.3-13.1 38.2-13.1 38.2-12.8-38.5L24.8 414H6v45.5zm130.7-44.3c-10.9 28-33.7 88-33.7 88.8 0 .7 2.2 1 6.2.8l6.2-.3 5.1-13.5 5-13.5 18.7-.3 18.6-.2 5.1 13.1c2.8 7.2 5.1 13.5 5.1 14s3.2.9 7 .9c3.9 0 7-.3 7-.8 0-.4-8.2-20.8-18.2-45.5L150.5 414h-6.6c-4.4 0-6.9.4-7.2 1.2zm11.6 22.8c2.5 6.9 5.9 16.2 7.6 20.7l3 8.3h-29.8l2.6-6.8c5-13.1 11.3-31.7 11.3-33.6 0-3.1.6-1.8 5.3 11.4zm32.7-18.5v5.5h29l.2 39.7.3 39.8 6.3.3 6.2.3V425h30v-11h-72v5.5zm84 40V505h68v-11h-56.1l.3-15.3.3-15.2 25.3-.3 25.3-.2-.3-5.3-.3-5.2-25.2-.3-25.3-.2v-27h54v-11h-66v45.5zm85 0V505h12v-40h10.3c7.7 0 11 .4 13.7 1.8 4.4 2.2 10.4 9.7 20.5 25.6l7.9 12.6h7.4c6.1 0 7.3-.3 6.8-1.5-.3-.8-4.4-7.4-9-14.7-8.6-13.4-13.7-19.6-19-23.4l-2.9-2.1 3.9-.7c6.7-1.1 13.5-5.6 16.9-11 2.4-4 3-6.2 3.3-12 .3-6.3 0-7.7-2.5-12.6-3.5-6.7-8.8-10.6-16.2-12-2.9-.5-16.1-1-29.2-1H350v45.5zm48.7-34c9.6 2.8 13.3 10.8 9.1 19.3-3.8 7.7-6.8 8.6-28 9l-17.8.4V424h15.8c11.2 0 17.3.4 20.9 1.5zm44.3 34V505h12v-91h-12v45.5zm57.1-43.3c-1.5 3.9-29.2 75.9-31.7 82.6l-2.4 6.3 6.6-.3 6.7-.3 5-13.7 5-13.8h37.4l5.3 14 5.3 14h6.8c3.8 0 6.9-.3 6.9-.8-.1-.4-8.3-20.7-18.3-45.2l-18.3-44.5-6.7-.3c-6.2-.3-6.8-.1-7.6 2zm19.2 41.5l3.5 9.3h-14.9c-8.2 0-14.9-.2-14.9-.4s2.4-6.8 5.4-14.7c3-7.9 6.2-17.2 7.2-20.7l1.8-6.3 4.2 11.8c2.3 6.5 5.7 16 7.7 21zm40.7 1.8V505h57v-11h-45v-80h-12v45.5zm102 0V505h12v-43h47v43h12v-91h-12v37h-47v-37h-12v45.5zm115.1-43.3c-3 7.6-31.5 82-32.7 85.1l-1.3 3.8 6.6-.3 6.6-.3 5-13.7 5-13.8h37.4l5.3 14 5.3 14h6.9c6.2 0 6.9-.2 6.4-1.8-.3-.9-8.6-21.3-18.4-45.2l-17.8-43.5-6.7-.3c-6.2-.3-6.8-.1-7.6 2zm19.2 41.5l3.5 9.3h-14.9c-8.2 0-14.9-.2-14.9-.5 0-.2 2-5.5 4.3-11.7 4.5-11.6 8-22 9.2-27.3.6-2.7 1.2-1.7 5 9 2.3 6.6 5.8 16.2 7.8 21.2zm40.9 1.5l.3 45.3 5.7.3 5.8.3.2-35.3.3-35.3 23.5 35.2 23.5 35.2 6.3.1h6.2v-91h-12l-.2 34.6-.3 34.6-23.3-34.6-23.3-34.6H837l.2 45.2zm91.8.2V505h19.3c27.4 0 35.3-1.8 43.5-10.2 8.3-8.3 12.2-19.7 12.2-35.5 0-21.2-6.7-34.6-20.8-41.5l-6.7-3.3-23.7-.3-23.8-.4v45.6zm49.3-31.1c9.2 5.4 12.9 14.2 13 30.2 0 17.8-4.3 27.9-14 32.6-4.3 2.1-6.5 2.4-20.5 2.7l-15.8.4v-69.4l16.3.3c15.6.4 16.4.5 21 3.2zm41.7 31.2V505h57v-11h-45v-80h-12v45.5zm73 0V505h12v-91h-12v45.5zm33 0V505h12l.2-35.1.3-35.2 23.4 35.2 23.4 35.1h12.7v-91h-12v70.4l-23.7-35.2-23.7-35.2H1126v45.5z" fill="#231f20"/></svg>